#!OML:ASF H:\Terrain\Patient Classification 1\Terrain2\Thursday\justin.ASF
:FULLY-SPECIFIED
:DEGREES
3717
root 31.1114 18.2023 3.0371 1262.81 -2.63809 -173.279
lowerback 7.81618 -0.14399 5.64508
upperback 2.2061 -0.136657 4.97476
thorax -2.07643 -0.300725 2.00513
lowerneck -14.1389 0.7425 -9.33505
upperneck 36.1097 -1.04001 3.22501
head 14.9471 -2.5213 2.4989
rclavicle 6.16232e-015 4.85035e-014
rhumerus -31.3463 -8.96924 -77.2991
rradius 28.2604
rwrist -8.86871
rhand -23.7029 10.7727
rfingers 7.12502
rthumb 2.7643 -19.1892
lclavicle 6.16232e-015 4.85035e-014
lhumerus -35.5826 5.32261 86.3965
lradius 28.9065
lwrist 3.02804
lhand -20.0193 23.2487
lfingers 7.12502
lthumb 6.32123 53.1344
rfemur -12.7963 -8.03148 28.8415
rtibia 20.6749
rfoot -10.1667 6.16051
rtoes 10.2938
lfemur -9.761 -0.759955 -11.173
ltibia 58.6551
lfoot 4.91953 -4.68767
ltoes 4.28254
3718
root 31.1301 18.2002 2.92933 1262.68 -2.58819 -173.134
lowerback 7.85671 -0.15239 5.63449
upperback 2.16222 -0.149331 5.08302
thorax -2.14401 -0.312975 2.12657
lowerneck -13.8946 0.80737 -9.43074
upperneck 36.1124 -1.00016 3.27474
head 14.8876 -2.52617 2.53975
rclavicle -5.56597e-015 2.78299e-014
rhumerus -30.9505 -8.82912 -77.1866
rradius 28.0885
rwrist -8.93372
rhand -23.9092 10.9987
rfingers 7.12502
rthumb 2.56501 -18.9656
lclavicle -5.56597e-015 2.78299e-014
lhumerus -35.7915 5.54412 86.4094
lradius 29.1675
lwrist 2.60046
lhand -19.6264 23.0851
lfingers 7.12502
lthumb 6.70046 52.9591
rfemur -12.1447 -7.75337 29.0129
rtibia 20.5365
rfoot -10.4596 5.9539
rtoes 10.1289
lfemur -10.8191 -0.468032 -10.9434
ltibia 59.7528
lfoot 4.45674 -4.87069
ltoes 5.3091
3719
root 31.1443 18.1898 2.81486 1262.44 -2.57571 -173.148
lowerback 7.97009 -0.150617 5.51577
upperback 2.16394 -0.153081 5.16876
thorax -2.20505 -0.319456 2.2845
lowerneck -13.7127 0.85819 -9.55187
upperneck 36.0469 -0.896536 3.22847
head 14.8063 -2.50794 2.55627
rclavicle -9.74045e-015 2.46493e-014
rhumerus -30.6428 -8.68143 -76.9623
rradius 28.0353
rwrist -8.98792
rhand -23.8931 11.0769
rfingers 7.12502
rthumb 2.58055 -18.8873
lclavicle -9.74045e-015 2.46493e-014
lhumerus -35.99 5.53262 86.6332
lradius 29.5054
lwrist 2.92873
lhand -19.4314 23.0979
lfingers 7.12502
lthumb 6.88871 52.9658
rfemur -11.4012 -7.70758 28.9568
rtibia 20.55
rfoot -10.7704 5.93853
rtoes 10.3368
lfemur -11.7026 -0.293845 -10.9771
ltibia 60.6963
lfoot 3.97253 -5.06861
ltoes 6.35128
3720
root 31.1544 18.1805 2.69667 1262.21 -2.58668 -173.268
lowerback 7.9741 -0.0945389 5.46188
upperback 2.22067 -0.0842808 5.12099
thorax -2.14867 -0.282364 2.25714
lowerneck -13.8064 0.837154 -9.50715
upperneck 36.1829 -0.920585 3.14627
head 14.8954 -2.53315 2.51029
rclavicle -9.93923e-016 -2.70347e-014
rhumerus -30.4496 -8.9772 -76.7257
rradius 28.2239
rwrist -9.05936
rhand -23.5951 11.002
rfingers 7.12502
rthumb 2.8684 -18.9585
lclavicle -9.93923e-016 -2.70347e-014
lhumerus -35.9815 5.24786 86.8991
lradius 29.5222
lwrist 3.86167
lhand -20.1892 22.5503
lfingers 7.12502
lthumb 6.15715 52.4408
rfemur -10.7142 -7.86774 28.772
rtibia 20.6554
rfoot -10.8922 6.19493
rtoes 12.6014
lfemur -12.55 -0.189569 -11.1769
ltibia 61.5361
lfoot 3.5741 -5.10043
ltoes 6.54873
3721
root 31.1642 18.18 2.58229 1262.17 -2.49738 -173.231
lowerback 7.80026 -0.00967956 5.57661
upperback 2.20599 0.0279824 5.08087
thorax -2.06671 -0.223074 2.13837
lowerneck -13.9196 0.848939 -9.56304
upperneck 36.5104 -0.994886 3.2683
head 15.0844 -2.58855 2.55861
rclavicle 3.77691e-015 4.77083e-015
rhumerus -30.1744 -9.02942 -76.6954
rradius 28.3262
rwrist -9.71244
rhand -23.6408 10.9389
rfingers 7.12502
rthumb 2.82423 -19.0221
lclavicle 3.77691e-015 4.77083e-015
lhumerus -35.9688 5.03119 87.069
lradius 29.5735
lwrist 4.25615
lhand -21.0676 22.6574
lfingers 7.12502
lthumb 5.30904 52.5709
rfemur -10.3294 -7.90932 28.8066
rtibia 20.8025
rfoot -10.9872 6.42231
rtoes 15.1668
lfemur -13.5783 0.0739168 -11.1797
ltibia 62.2759
lfoot 2.92826 -5.20703
ltoes 3.89777
3722
root 31.1753 18.1832 2.47416 1262.2 -2.45195 -172.753
lowerback 7.63144 0.0351952 6.11106
upperback 2.12584 0.107335 5.14362
thorax -2.05134 -0.190912 1.8981
lowerneck -13.7373 0.87743 -9.49273
upperneck 36.5479 -1.03871 3.28962
head 15.0619 -2.60785 2.54583
rclavicle -2.78299e-015 -4.37326e-014
rhumerus -29.8489 -8.85133 -76.8107
rradius 28.1699
rwrist -10.7565
rhand -24.2126 11.6233
rfingers 7.12502
rthumb 2.27201 -18.3444
lclavicle -2.78299e-015 -4.37326e-014
lhumerus -36.166 4.80865 87.1177
lradius 30.1547
lwrist 4.15015
lhand -20.9001 23.8987
lfingers 7.12502
lthumb 5.47085 53.8081
rfemur -10.106 -7.75128 29.3783
rtibia 20.9512
rfoot -11.1394 6.25816
rtoes 16.2254
lfemur -14.8012 0.429824 -10.6455
ltibia 62.9141
lfoot 1.92734 -5.63917
ltoes 0.0841353
3723
root 31.1857 18.1736 2.37304 1262.16 -2.3918 -172.484
lowerback 7.6237 0.0926143 6.41283
upperback 2.06052 0.206664 5.15994
thorax -2.11086 -0.146355 1.73885
lowerneck -13.5293 0.883774 -9.46535
upperneck 36.5393 -1.12489 3.38998
head 15.015 -2.63564 2.56756
rclavicle 1.98785e-016 2.38542e-015
rhumerus -29.6293 -9.77284 -76.327
rradius 28.2081
rwrist -8.63064
rhand -23.3019 11
rfingers 7.12502
rthumb 3.1515 -18.9564
lclavicle 1.98785e-016 2.38542e-015
lhumerus -36.2633 4.59166 87.1645
lradius 30.1113
lwrist 4.64342
lhand -21.977 22.383
lfingers 7.12502
lthumb 4.43103 52.3167
rfemur -9.76053 -7.51988 29.7308
rtibia 21.0552
rfoot -11.2852 5.95711
rtoes 15.2304
lfemur -15.9407 0.669518 -10.3605
ltibia 63.4451
lfoot 0.972198 -5.91471
ltoes -0.224067
3724
root 31.1922 18.1609 2.26153 1261.97 -2.22595 -172.709
lowerback 7.66126 0.163332 6.18739
upperback 2.08378 0.294562 5.10701
thorax -2.10877 -0.0973629 1.80058
lowerneck -13.7027 0.952217 -9.58785
upperneck 36.8683 -1.08729 3.53562
head 15.2111 -2.64812 2.65697
rclavicle 1.25234e-014 1.31198e-013
rhumerus -29.3376 -10.1778 -75.9929
rradius 28.3548
rwrist -7.65679
rhand -22.8023 10.3979
rfingers 7.12502
rthumb 3.63401 -19.5509
lclavicle 1.25234e-014 1.31198e-013
lhumerus -36.203 4.65137 87.2481
lradius 29.9631
lwrist 4.67105
lhand -22.0332 21.5886
lfingers 7.12502
lthumb 4.37675 51.5234
rfemur -9.15692 -7.39335 29.4648
rtibia 21.1216
rfoot -11.5438 5.94987
rtoes 14.1682
lfemur -16.6841 0.764399 -10.7002
ltibia 63.7827
lfoot -0.0138959 -5.86641
ltoes 0.380475
3725
root 31.1973 18.1473 2.14662 1261.7 -2.08498 -172.606
lowerback 7.78986 0.218287 6.34056
upperback 2.11164 0.381841 5.11059
thorax -2.14792 -0.058651 1.71172
lowerneck -13.9676 0.942601 -9.42019
upperneck 37.0932 -1.07239 3.33257
head 15.3829 -2.6603 2.54397
rclavicle -3.37934e-015 -7.71285e-014
rhumerus -29.1025 -9.74734 -76.0801
rradius 28.7416
rwrist -8.6201
rhand -22.9303 9.30103
rfingers 7.12502
rthumb 3.51037 -20.6498
lclavicle -3.37934e-015 -7.71285e-014
lhumerus -36.3392 4.70771 87.2642
lradius 30.0813
lwrist 4.58421
lhand -21.407 21.0014
lfingers 7.12502
lthumb 4.98138 50.9229
rfemur -8.46845 -7.2219 29.5316
rtibia 21.2038
rfoot -11.7028 5.99076
rtoes 14.9155
lfemur -17.3665 0.991053 -10.6506
ltibia 64.0128
lfoot -0.945147 -5.83433
ltoes 2.1935
3726
root 31.2075 18.1295 2.04244 1261.59 -1.97363 -172.267
lowerback 7.90146 0.284718 6.74432
upperback 2.01968 0.513896 5.12682
thorax -2.29759 -0.00207161 1.49333
lowerneck -13.8478 0.85713 -9.22624
upperneck 36.9827 -1.19152 3.14809
head 15.3105 -2.70128 2.41034
rclavicle 3.37934e-015 -1.59028e-015
rhumerus -29.089 -9.24952 -76.2627
rradius 29.1332
rwrist -9.83705
rhand -23.1944 9.48539
rfingers 7.12502
rthumb 3.25533 -20.4695
lclavicle 3.37934e-015 -1.59028e-015
lhumerus -36.63 4.60826 87.2221
lradius 30.2733
lwrist 4.52141
lhand -20.8561 20.5376
lfingers 7.12502
lthumb 5.51329 50.4459
rfemur -8.05378 -6.85623 29.9447
rtibia 21.3692
rfoot -11.8677 5.76241
rtoes 15.4815
lfemur -18.3428 1.33752 -10.2849
ltibia 64.1512
lfoot -1.7065 -5.89191
ltoes 4.56196
3727
root 31.2191 18.1159 1.93419 1261.53 -1.86403 -171.952
lowerback 7.8544 0.355293 7.08647
upperback 1.98914 0.622061 5.16587
thorax -2.29493 0.0448832 1.3343
lowerneck -13.7614 0.830248 -9.36584
upperneck 36.9462 -1.25057 3.28769
head 15.2782 -2.72635 2.4846
rclavicle -1.33186e-014 -1.20861e-013
rhumerus -28.9976 -8.97451 -76.3196
rradius 29.4975
rwrist -10.468
rhand -23.3204 9.78375
rfingers 7.12502
rthumb 3.1337 -20.173
lclavicle -1.33186e-014 -1.20861e-013
lhumerus -36.6679 4.57607 87.2481
lradius 30.2951
lwrist 4.53061
lhand -21.0237 21.0225
lfingers 7.12502
lthumb 5.35147 50.9349
rfemur -7.72818 -6.52306 30.3491
rtibia 21.6421
rfoot -12.2345 5.52456
rtoes 16.0375
lfemur -19.2965 1.57694 -9.95813
ltibia 64.1575
lfoot -2.62663 -5.95888
ltoes 2.182
